<svg width="6" height="10" viewBox="0 0 6 10" xmlns="http://www.w3.org/2000/svg">
    <g fill="none" fill-rule="evenodd">
        <path d="M0 0h6v10H0z"/>
        <path d="M.487 9.368a.554.554 0 0 0 .717 0L5.395 5.65a.845.845 0 0 0 .297-.636c0-.24-.107-.47-.297-.636L1.173.63A.555.555 0 0 0 .461.627a.424.424 0 0 0-.153.32c-.001.121.053.237.149.321L4.32 4.696a.423.423 0 0 1 .149.318c0 .12-.054.235-.149.318l-3.833 3.4a.422.422 0 0 0-.148.318c0 .12.053.236.148.318" fill="#2E2A25" fill-rule="nonzero"/>
    </g>
</svg>
